<svg width="12" height="10" viewBox="0 0 12 10" fill="none" xmlns="http://www.w3.org/2000/svg">
<path d="M10.5 5.23333L11.1999 5.94755C11.3919 5.75946 11.5 5.50205 11.5 5.23333C11.5 4.96462 11.3919 4.7072 11.1999 4.51912L10.5 5.23333ZM7.3904 0.785787C6.99596 0.399227 6.36282 0.405623 5.97626 0.800071C5.5897 1.19452 5.5961 1.82765 5.99055 2.21421L7.3904 0.785787ZM6.46674 7.78579C6.07229 8.17235 6.06589 8.80548 6.45245 9.19993C6.83901 9.59438 7.47215 9.60077 7.8666 9.21421L6.46674 7.78579ZM0.5 6.23333H10.5V4.23333H0.5V6.23333ZM11.1999 4.51912L7.3904 0.785787L5.99055 2.21421L9.80007 5.94755L11.1999 4.51912ZM9.80007 4.51912L6.46674 7.78579L7.8666 9.21421L11.1999 5.94755L9.80007 4.51912Z" fill="white"/>
</svg>
